<svg viewBox="0 0 900 700" xmlns="http://www.w3.org/2000/svg" role="img">
<defs>
    <linearGradient id="sky" x1="0" y1="0" x2="0" y2="1">
      <stop offset="0%" stop-color="#2b2f45"/>
      <stop offset="55%" stop-color="#4a3f52"/>
      <stop offset="100%" stop-color="#caa15c"/>
    </linearGradient>
    <linearGradient id="wallLight" x1="0" y1="0" x2="0" y2="1">
      <stop offset="0%" stop-color="#efe9db"/>
      <stop offset="100%" stop-color="#d8d1c0"/>
    </linearGradient>
    <linearGradient id="wallDark" x1="0" y1="0" x2="0" y2="1">
      <stop offset="0%" stop-color="#32363f"/>
      <stop offset="100%" stop-color="#1d2027"/>
    </linearGradient>
    <linearGradient id="win" x1="0" y1="0" x2="0" y2="1">
      <stop offset="0%" stop-color="#ffe6a8"/>
      <stop offset="100%" stop-color="#f3b95e"/>
    </linearGradient>
    <linearGradient id="ground" x1="0" y1="0" x2="0" y2="1">
      <stop offset="0%" stop-color="#363b2c"/>
      <stop offset="100%" stop-color="#20241a"/>
    </linearGradient>
    <radialGradient id="glow" cx="50%" cy="50%" r="50%">
      <stop offset="0%" stop-color="#f3c477" stop-opacity="0.5"/>
      <stop offset="100%" stop-color="#f3c477" stop-opacity="0"/>
    </radialGradient>
    <filter id="grain" x="-20%" y="-20%" width="140%" height="140%">
      <feTurbulence type="fractalNoise" baseFrequency="0.85" numOctaves="2" seed="7" stitchTiles="stitch" result="n"/>
      <feColorMatrix in="n" type="matrix" values="0 0 0 0 0  0 0 0 0 0  0 0 0 0 0  0 0 0 0.045 0"/>
    </filter>
  </defs>
<rect width="900" height="700" fill="url(#sky)"/>
<circle cx="740" cy="120" r="46" fill="#f6d999" opacity="0.9"/>
<g><circle cx="654" cy="57" r="0.6" fill="#fff" opacity="0.57"/><circle cx="250" cy="114" r="0.8" fill="#fff" opacity="0.57"/><circle cx="692" cy="44" r="1.2" fill="#fff" opacity="0.22"/><circle cx="95" cy="111" r="0.8" fill="#fff" opacity="0.45"/><circle cx="27" cy="101" r="1.2" fill="#fff" opacity="0.31"/><circle cx="603" cy="142" r="0.6" fill="#fff" opacity="0.58"/><circle cx="163" cy="216" r="1" fill="#fff" opacity="0.34"/><circle cx="220" cy="172" r="0.6" fill="#fff" opacity="0.25"/><circle cx="99" cy="183" r="1" fill="#fff" opacity="0.50"/><circle cx="826" cy="22" r="1.2" fill="#fff" opacity="0.47"/><circle cx="387" cy="40" r="1" fill="#fff" opacity="0.61"/><circle cx="633" cy="185" r="0.8" fill="#fff" opacity="0.55"/><circle cx="46" cy="116" r="1" fill="#fff" opacity="0.69"/><circle cx="875" cy="119" r="0.6" fill="#fff" opacity="0.39"/><circle cx="464" cy="186" r="0.8" fill="#fff" opacity="0.39"/><circle cx="214" cy="136" r="0.6" fill="#fff" opacity="0.50"/><circle cx="175" cy="125" r="0.8" fill="#fff" opacity="0.43"/><circle cx="276" cy="112" r="1" fill="#fff" opacity="0.62"/><circle cx="794" cy="28" r="0.8" fill="#fff" opacity="0.61"/><circle cx="824" cy="161" r="1.2" fill="#fff" opacity="0.33"/><circle cx="216" cy="161" r="0.8" fill="#fff" opacity="0.53"/><circle cx="405" cy="234" r="0.8" fill="#fff" opacity="0.33"/><circle cx="252" cy="134" r="1.2" fill="#fff" opacity="0.65"/><circle cx="408" cy="185" r="0.8" fill="#fff" opacity="0.70"/><circle cx="141" cy="260" r="1.2" fill="#fff" opacity="0.25"/><circle cx="48" cy="56" r="0.8" fill="#fff" opacity="0.51"/><circle cx="811" cy="216" r="0.6" fill="#fff" opacity="0.39"/><circle cx="610" cy="239" r="1" fill="#fff" opacity="0.69"/><circle cx="881" cy="5" r="0.6" fill="#fff" opacity="0.54"/><circle cx="549" cy="136" r="1" fill="#fff" opacity="0.26"/><circle cx="445" cy="80" r="1.2" fill="#fff" opacity="0.20"/><circle cx="739" cy="134" r="0.8" fill="#fff" opacity="0.45"/><circle cx="108" cy="152" r="0.8" fill="#fff" opacity="0.28"/><circle cx="780" cy="82" r="0.6" fill="#fff" opacity="0.50"/><circle cx="500" cy="9" r="0.6" fill="#fff" opacity="0.66"/><circle cx="899" cy="157" r="0.8" fill="#fff" opacity="0.23"/><circle cx="899" cy="40" r="0.6" fill="#fff" opacity="0.57"/><circle cx="835" cy="35" r="0.8" fill="#fff" opacity="0.26"/><circle cx="486" cy="84" r="1" fill="#fff" opacity="0.46"/><circle cx="621" cy="216" r="0.8" fill="#fff" opacity="0.66"/></g>
<g opacity="0.55" fill="#141712"><ellipse cx="80" cy="470" rx="56.0" ry="84.0"/><ellipse cx="136.0" cy="489.6" rx="39.199999999999996" ry="58.8"/></g>
<g opacity="0.5" fill="#141712"><ellipse cx="830" cy="460" rx="64.0" ry="96.0"/><ellipse cx="894.0" cy="482.4" rx="44.800000000000004" ry="67.2"/></g>
<rect width="900" height="220" y="480" fill="url(#ground)"/>
<ellipse cx="620" cy="600" rx="230" ry="46" fill="url(#glow)"/>
<rect x="420" y="580" width="400" height="40" rx="6" fill="#1b2733"/>
<rect x="428" y="586" width="384" height="28" rx="4" fill="#3a6e7c"/>
<g opacity="0.5"><ellipse cx="470" cy="590" rx="60" ry="6" fill="#ffffff"/><ellipse cx="650" cy="598" rx="80" ry="6" fill="#ffffff"/></g>
<rect x="230" y="230" width="470" height="150" fill="url(#wallLight)"/>
<rect x="230" y="230" width="470" height="10" fill="#c9a25c"/>
<rect x="258.0" y="268.0" width="70.4" height="84.0" fill="url(#win)"/>
<rect x="340.4" y="268.0" width="70.4" height="84.0" fill="url(#win)"/>
<rect x="422.8" y="268.0" width="70.4" height="84.0" fill="#232733"/>
<rect x="505.2" y="268.0" width="70.4" height="84.0" fill="url(#win)"/>
<rect x="587.6" y="268.0" width="70.4" height="84.0" fill="url(#win)"/>
<rect x="180" y="380" width="560" height="180" fill="url(#wallDark)"/>
<rect x="180" y="380" width="560" height="6" fill="#caa15c"/>
<rect x="206.0" y="418.0" width="90.4" height="124.0" fill="#232733"/>
<rect x="310.4" y="418.0" width="90.4" height="124.0" fill="url(#win)"/>
<rect x="414.8" y="418.0" width="90.4" height="124.0" fill="url(#win)"/>
<rect x="519.2" y="418.0" width="90.4" height="124.0" fill="#232733"/>
<rect x="623.6" y="418.0" width="90.4" height="124.0" fill="url(#win)"/>
<g stroke="#c9a25c" stroke-width="4" opacity="0.85"><line x1="180" y1="380" x2="180" y2="360"/><line x1="740" y1="380" x2="740" y2="360"/><line x1="180" y1="360" x2="740" y2="360"/></g>
<rect x="330" y="560" width="220" height="14" fill="#2a2e25"/>
<rect x="350" y="574" width="180" height="14" fill="#23261e"/>
<rect x="370" y="588" width="140" height="14" fill="#1c1f18"/>
<rect width="900" height="700" filter="url(#grain)"/>
</svg>