<svg viewBox="0 0 400 300" xmlns="http://www.w3.org/2000/svg" role="img">
<defs>
    <linearGradient id="sky" x1="0" y1="0" x2="0" y2="1">
      <stop offset="0%" stop-color="#2a2440"/>
      <stop offset="55%" stop-color="#4a3a55"/>
      <stop offset="100%" stop-color="#e6bd7c"/>
    </linearGradient>
    <linearGradient id="wallLight" x1="0" y1="0" x2="0" y2="1">
      <stop offset="0%" stop-color="#efe9db"/>
      <stop offset="100%" stop-color="#d8d1c0"/>
    </linearGradient>
    <linearGradient id="wallDark" x1="0" y1="0" x2="0" y2="1">
      <stop offset="0%" stop-color="#32363f"/>
      <stop offset="100%" stop-color="#1d2027"/>
    </linearGradient>
    <linearGradient id="win" x1="0" y1="0" x2="0" y2="1">
      <stop offset="0%" stop-color="#ffe6a8"/>
      <stop offset="100%" stop-color="#f3b95e"/>
    </linearGradient>
    <linearGradient id="ground" x1="0" y1="0" x2="0" y2="1">
      <stop offset="0%" stop-color="#363b2c"/>
      <stop offset="100%" stop-color="#20241a"/>
    </linearGradient>
    <radialGradient id="glow" cx="50%" cy="50%" r="50%">
      <stop offset="0%" stop-color="#f3c477" stop-opacity="0.5"/>
      <stop offset="100%" stop-color="#f3c477" stop-opacity="0"/>
    </radialGradient>
    <filter id="grain" x="-20%" y="-20%" width="140%" height="140%">
      <feTurbulence type="fractalNoise" baseFrequency="0.85" numOctaves="2" seed="7" stitchTiles="stitch" result="n"/>
      <feColorMatrix in="n" type="matrix" values="0 0 0 0 0  0 0 0 0 0  0 0 0 0 0  0 0 0 0.045 0"/>
    </filter>
  </defs>
<rect width="400" height="300" fill="url(#sky)"/>
<circle cx="310" cy="52" r="24" fill="#f6d999" opacity="0.9"/>
<g opacity="0.55" fill="#141712"><ellipse cx="21" cy="230" rx="36.0" ry="54.0"/><ellipse cx="57.0" cy="242.6" rx="25.2" ry="37.800000000000004"/></g>
<rect y="210" width="400" height="90" fill="url(#ground)"/>
<rect x="153" y="95" width="207" height="70" fill="url(#wallLight)"/>
<rect x="153" y="95" width="207" height="5" fill="#c9a25c"/>
<rect x="167.0" y="113.0" width="53.0" height="38.0" fill="url(#win)"/>
<rect x="230.0" y="113.0" width="53.0" height="38.0" fill="#232733"/>
<rect x="293.0" y="113.0" width="53.0" height="38.0" fill="url(#win)"/>
<rect x="30" y="165" width="340" height="115" fill="url(#wallDark)"/>
<rect x="30" y="165" width="340" height="4" fill="#caa15c" opacity="0.9"/>
<rect x="46.0" y="183.0" width="68.0" height="83.0" fill="url(#win)"/>
<rect x="126.0" y="183.0" width="68.0" height="83.0" fill="url(#win)"/>
<rect x="206.0" y="183.0" width="68.0" height="83.0" fill="#232733"/>
<rect x="286.0" y="183.0" width="68.0" height="83.0" fill="#232733"/>
<rect x="153" y="91" width="207" height="4" fill="#c9a25c"/>
</svg>