<svg viewBox="0 0 400 300" xmlns="http://www.w3.org/2000/svg" role="img">
<defs>
    <linearGradient id="sky" x1="0" y1="0" x2="0" y2="1">
      <stop offset="0%" stop-color="#2b2f45"/>
      <stop offset="55%" stop-color="#3f3550"/>
      <stop offset="100%" stop-color="#caa15c"/>
    </linearGradient>
    <linearGradient id="wallLight" x1="0" y1="0" x2="0" y2="1">
      <stop offset="0%" stop-color="#efe9db"/>
      <stop offset="100%" stop-color="#d8d1c0"/>
    </linearGradient>
    <linearGradient id="wallDark" x1="0" y1="0" x2="0" y2="1">
      <stop offset="0%" stop-color="#32363f"/>
      <stop offset="100%" stop-color="#1d2027"/>
    </linearGradient>
    <linearGradient id="win" x1="0" y1="0" x2="0" y2="1">
      <stop offset="0%" stop-color="#ffe6a8"/>
      <stop offset="100%" stop-color="#f3b95e"/>
    </linearGradient>
    <linearGradient id="ground" x1="0" y1="0" x2="0" y2="1">
      <stop offset="0%" stop-color="#363b2c"/>
      <stop offset="100%" stop-color="#20241a"/>
    </linearGradient>
    <radialGradient id="glow" cx="50%" cy="50%" r="50%">
      <stop offset="0%" stop-color="#f3c477" stop-opacity="0.5"/>
      <stop offset="100%" stop-color="#f3c477" stop-opacity="0"/>
    </radialGradient>
    <filter id="grain" x="-20%" y="-20%" width="140%" height="140%">
      <feTurbulence type="fractalNoise" baseFrequency="0.85" numOctaves="2" seed="7" stitchTiles="stitch" result="n"/>
      <feColorMatrix in="n" type="matrix" values="0 0 0 0 0  0 0 0 0 0  0 0 0 0 0  0 0 0 0.045 0"/>
    </filter>
  </defs>
<rect width="400" height="300" fill="url(#sky)"/>
<circle cx="298" cy="54" r="23" fill="#f6d999" opacity="0.9"/>
<g opacity="0.55" fill="#141712"><ellipse cx="40" cy="230" rx="36.0" ry="54.0"/><ellipse cx="76.0" cy="242.6" rx="25.2" ry="37.800000000000004"/></g>
<rect y="210" width="400" height="90" fill="url(#ground)"/>
<ellipse cx="310" cy="276" rx="120" ry="18" fill="url(#glow)"/>
<rect x="210" y="260" width="190" height="20" rx="4" fill="#1b2733"/>
<rect x="216" y="264" width="178" height="12" rx="3" fill="#3a6e7c"/>
<rect x="130" y="118" width="212" height="70" fill="url(#wallLight)"/>
<rect x="130" y="118" width="212" height="5" fill="#c9a25c"/>
<rect x="144.0" y="136.0" width="54.7" height="38.0" fill="url(#win)"/>
<rect x="208.7" y="136.0" width="54.7" height="38.0" fill="url(#win)"/>
<rect x="273.3" y="136.0" width="54.7" height="38.0" fill="#232733"/>
<rect x="30" y="188" width="340" height="92" fill="url(#wallDark)"/>
<rect x="30" y="188" width="340" height="4" fill="#caa15c" opacity="0.9"/>
<rect x="46.0" y="206.0" width="68.0" height="60.0" fill="url(#win)"/>
<rect x="126.0" y="206.0" width="68.0" height="60.0" fill="#232733"/>
<rect x="206.0" y="206.0" width="68.0" height="60.0" fill="url(#win)"/>
<rect x="286.0" y="206.0" width="68.0" height="60.0" fill="#232733"/>
<rect x="130" y="114" width="212" height="4" fill="#c9a25c"/>
</svg>