<svg xmlns="http://www.w3.org/2000/svg" viewBox="0 0 690 690">
<title>Khaneh Ideal</title>
<g transform="translate(0,690) scale(0.1,-0.1)" fill="#000000">
<path d="M1630 6713 c-235 -19 -455 -80 -638 -179 -299 -161 -528 -436 -630
-754 -64 -203 -61 -81 -64 -2330 l-3 -2045 23 -105 c63 -285 183 -519 361
-703 173 -179 405 -313 663 -382 210 -56 202 -56 2168 -53 l1805 3 125 28
c427 95 730 287 932 592 124 186 183 337 223 565 15 87 17 272 15 2099 0 1272
-5 2033 -11 2085 -20 162 -58 291 -124 428 -192 394 -523 631 -1020 731 l-110
22 -1835 1 c-1009 0 -1855 -1 -1880 -3z"/>
</g>
</svg>
